<svg xmlns="http://www.w3.org/2000/svg" viewBox="0 0 1315.65 509.43"><defs><style>.cls-1{fill:#262b2e;}</style></defs><g id="Layer_2" data-name="Layer 2"><g id="Layer_1-2" data-name="Layer 1"><path class="cls-1" d="M730.84,401.23q-6.69,1.22-19.76,3.34a164.2,164.2,0,0,1-26.44,2.13,143.46,143.46,0,0,1-24-1.82,41,41,0,0,1-17.93-7.29,35.07,35.07,0,0,1-11.25-14.9q-4-9.42-4-24.62V5.48q6.68-1.22,19.76-3.34A164,164,0,0,1,673.7,0a143.63,143.63,0,0,1,24,1.82,40.91,40.91,0,0,1,17.93,7.3A35.33,35.33,0,0,1,726.89,24q3.95,9.43,4,24.62Z"/><path class="cls-1" d="M931.45,401.23q-6.69,1.22-19.76,3.34a164.2,164.2,0,0,1-26.44,2.13,143.46,143.46,0,0,1-24-1.82,41,41,0,0,1-17.93-7.29,35.07,35.07,0,0,1-11.25-14.9q-4-9.42-3.95-24.62V5.48q6.67-1.22,19.76-3.34A164,164,0,0,1,874.31,0a143.63,143.63,0,0,1,24,1.82,40.91,40.91,0,0,1,17.93,7.3A35.33,35.33,0,0,1,927.5,24q3.94,9.43,4,24.62Z"/><path class="cls-1" d="M1315.65,348.34q-3,28.59-16.72,43.77t-39.82,15.2q-19.47,0-34.65-9.42T1191.63,366l-60.18-75.38V401.23q-6.69,1.22-19.76,3.34a164.2,164.2,0,0,1-26.44,2.13,143.46,143.46,0,0,1-24-1.82,41,41,0,0,1-17.93-7.29,35.15,35.15,0,0,1-11.25-14.9q-4-9.42-4-24.62V6.08q6.67-1.83,19.76-3.95A164.11,164.11,0,0,1,1074.31,0a143.63,143.63,0,0,1,24,1.82,40.91,40.91,0,0,1,17.93,7.3A35.33,35.33,0,0,1,1127.5,24q3.95,9.43,4,24.62V209.12l104.56-107q31.6,0,50.76,14t19.15,35.26a44.77,44.77,0,0,1-3,16.72,61.13,61.13,0,0,1-9.42,15.5,139.59,139.59,0,0,1-16.41,16.72q-10,8.82-23.4,20.36l-35.26,30.4Z"/><path class="cls-1" d="M65.66,326.45q-6.69-15.18-14.29-34T35.56,249.25q-8.21-24.3-17-55.62T0,121.59q8.5-8.5,22.8-14.89a75.79,75.79,0,0,1,31.31-6.38q21.27,0,35.26,8.81T110,142.26l48,167.18h2.43q7.29-20.65,14.29-45t13.68-50.15q6.67-25.83,12.46-51.67t10-50.76a101.41,101.41,0,0,1,48-11.55q21.27,0,35.26,9.12t14,31.61q0,16.41-4.26,38t-11.25,45.9q-7,24.32-16.41,50.15t-19.76,50.76Q246.18,350.78,235.25,373T214,412.78q-17,29.78-31.61,48.63t-28,29.48Q141,501.53,127.65,505.48a98.36,98.36,0,0,1-28,3.95q-25.53,0-41.34-15.2t-18.83-39.5Q59,439.52,78.43,421a410.71,410.71,0,0,0,35.26-38q-10.35-3-22.19-14.29T65.66,326.45Z"/><path class="cls-1" d="M453.34,100.45c-64.74,0-116.13,137.94-116.13,202.68s53.58,104.08,118.32,104.08,116.13-39.34,116.13-104.08S518.08,100.45,453.34,100.45Zm1.28,264.65c-36.36,0-66.32-16.26-66.32-48.9s29.48-59.1,65.84-59.1S520,283.56,520,316.2,491,365.1,454.62,365.1Z"/></g></g></svg>