<?xml version="1.0" encoding="utf-8"?>
<!-- Generator: Adobe Illustrator 24.1.0, SVG Export Plug-In . SVG Version: 6.00 Build 0)  -->
<svg version="1.1" id="Layer_1" xmlns="http://www.w3.org/2000/svg" xmlns:xlink="http://www.w3.org/1999/xlink" x="0px" y="0px"
	 viewBox="0 0 1366 768" style="enable-background:new 0 0 1366 768;" xml:space="preserve">
<style type="text/css">
	.st0{fill:#FFC93C;}
	.st1{fill:#FFFFFF;}
</style>
<g>
	<g>
		<g>
			<path class="st0" d="M755.55,530.3c-4.46,0.81-11.05,1.92-19.76,3.34c-8.72,1.42-17.53,2.13-26.44,2.13
				c-8.92,0-16.93-0.61-24.01-1.82c-7.1-1.22-13.07-3.65-17.93-7.29c-4.86-3.65-8.62-8.61-11.25-14.9
				c-2.64-6.28-3.95-14.49-3.95-24.62V134.55c4.45-0.81,11.04-1.92,19.76-3.34c8.71-1.42,17.52-2.13,26.44-2.13
				c8.91,0,16.92,0.61,24.01,1.82c7.09,1.22,13.07,3.65,17.93,7.3c4.86,3.65,8.6,8.62,11.25,14.89c2.63,6.29,3.95,14.49,3.95,24.62
				V530.3z"/>
			<path class="st0" d="M956.16,530.3c-4.46,0.81-11.05,1.92-19.76,3.34c-8.72,1.42-17.53,2.13-26.44,2.13
				c-8.92,0-16.93-0.61-24.01-1.82c-7.1-1.22-13.07-3.65-17.93-7.29c-4.86-3.65-8.62-8.61-11.25-14.9
				c-2.64-6.28-3.95-14.49-3.95-24.62V134.55c4.45-0.81,11.04-1.92,19.76-3.34c8.71-1.42,17.52-2.13,26.44-2.13
				c8.91,0,16.92,0.61,24.01,1.82c7.09,1.22,13.07,3.65,17.93,7.3c4.86,3.65,8.6,8.62,11.25,14.89c2.63,6.29,3.95,14.49,3.95,24.62
				V530.3z"/>
			<path class="st0" d="M1340.36,477.41c-2.03,19.06-7.6,33.64-16.72,43.77c-9.12,10.12-22.4,15.2-39.82,15.2
				c-12.98,0-24.53-3.15-34.65-9.42c-10.14-6.28-21.08-16.92-32.83-31.92l-60.18-75.38V530.3c-4.46,0.81-11.05,1.92-19.76,3.34
				c-8.72,1.42-17.53,2.13-26.44,2.13c-8.92,0-16.93-0.61-24.01-1.82c-7.1-1.22-13.07-3.65-17.93-7.29
				c-4.86-3.65-8.61-8.61-11.25-14.9c-2.64-6.28-3.95-14.49-3.95-24.62V135.15c4.45-1.22,11.04-2.53,19.76-3.95
				c8.71-1.42,17.53-2.13,26.44-2.13c8.91,0,16.92,0.61,24.01,1.82c7.09,1.22,13.07,3.65,17.93,7.3c4.86,3.65,8.6,8.62,11.25,14.89
				c2.63,6.29,3.95,14.49,3.95,24.62v160.49l104.56-106.99c21.07,0,37.99,4.66,50.76,13.98c12.77,9.33,19.15,21.08,19.15,35.26
				c0,6.08-1.02,11.65-3.04,16.72c-2.03,5.07-5.17,10.24-9.42,15.5c-4.26,5.27-9.73,10.85-16.41,16.72
				c-6.69,5.88-14.49,12.67-23.4,20.36l-35.26,30.4L1340.36,477.41z"/>
		</g>
		<g>
			<path class="st0" d="M90.37,455.52c-4.46-10.12-9.22-21.48-14.29-34.04s-10.33-26.95-15.81-43.16
				c-5.47-16.2-11.15-34.75-17.02-55.62c-5.88-20.87-12.06-44.88-18.54-72.04c5.67-5.67,13.27-10.64,22.8-14.89
				c9.52-4.26,19.96-6.38,31.31-6.38c14.18,0,25.93,2.94,35.26,8.81c9.32,5.88,16.2,16.93,20.67,33.13l48.02,167.18h2.43
				c4.86-13.77,9.62-28.77,14.29-44.99c4.65-16.21,9.21-32.92,13.68-50.15c4.45-17.22,8.61-34.44,12.46-51.67
				c3.85-17.22,7.19-34.14,10.03-50.76c14.59-7.69,30.6-11.55,48.02-11.55c14.18,0,25.93,3.04,35.26,9.12
				c9.32,6.08,13.98,16.62,13.98,31.61c0,10.94-1.42,23.61-4.26,37.99c-2.84,14.39-6.59,29.69-11.25,45.9s-10.14,32.93-16.41,50.15
				c-6.29,17.23-12.87,34.15-19.76,50.76c-6.9,16.62-13.98,32.32-21.28,47.11c-7.29,14.8-14.39,28.07-21.28,39.82
				c-11.35,19.85-21.89,36.07-31.61,48.63c-9.73,12.56-19.05,22.39-27.96,29.48c-8.92,7.09-17.84,11.95-26.75,14.59
				c-8.92,2.63-18.24,3.95-27.96,3.95c-17.02,0-30.8-5.07-41.34-15.2c-10.53-10.13-16.81-23.3-18.83-39.5
				c12.97-10.14,25.93-21.38,38.91-33.74c12.97-12.37,24.71-25.02,35.26-37.99c-6.9-2.02-14.29-6.78-22.19-14.29
				C108.31,490.28,99.69,476.19,90.37,455.52z"/>
		</g>
	</g>
	<path class="st0" d="M478.05,229.52c-64.74,0-116.13,137.94-116.13,202.68s53.58,104.08,118.32,104.08s116.13-39.34,116.13-104.08
		S542.79,229.52,478.05,229.52z M479.33,494.17c-36.36,0-66.32-16.26-66.32-48.9s29.48-59.1,65.84-59.1s65.84,26.46,65.84,59.1
		C544.7,477.91,515.7,494.17,479.33,494.17z"/>
</g>
<path class="st0" d="M-446.95,229.52c-64.74,0-116.13,137.94-116.13,202.68s53.58,104.08,118.32,104.08s116.13-39.34,116.13-104.08
	S-382.21,229.52-446.95,229.52z M-445.67,494.17c-36.36,0-66.32-16.26-66.32-48.9s29.48-59.1,65.84-59.1s65.84,26.46,65.84,59.1
	C-380.3,477.91-409.3,494.17-445.67,494.17z"/>
<g>
	<path class="st0" d="M45.2-267.77c-4.56-10.35-9.43-21.96-14.61-34.81c-5.19-12.84-10.57-27.55-16.16-44.13
		c-5.59-16.57-11.4-35.53-17.4-56.87c-6.01-21.34-12.33-45.89-18.96-73.66c5.8-5.8,13.57-10.88,23.31-15.23
		c9.73-4.35,20.4-6.53,32.01-6.53c14.5,0,26.51,3.01,36.05,9.01c9.53,6.01,16.57,17.31,21.13,33.88l49.1,170.93h2.49
		c4.97-14.08,9.84-29.42,14.61-46c4.76-16.57,9.42-33.66,13.99-51.28c4.55-17.61,8.8-35.22,12.74-52.83
		c3.93-17.61,7.35-34.9,10.26-51.9c14.92-7.87,31.28-11.81,49.1-11.81c14.5,0,26.51,3.11,36.05,9.32c9.53,6.22,14.3,17,14.3,32.32
		c0,11.19-1.46,24.14-4.35,38.85c-2.9,14.71-6.74,30.36-11.5,46.93c-4.77,16.58-10.36,33.67-16.78,51.28
		c-6.43,17.62-13.16,34.91-20.2,51.9c-7.05,17-14.3,33.05-21.75,48.17c-7.46,15.13-14.71,28.7-21.75,40.71
		c-11.61,20.3-22.38,36.88-32.32,49.73c-9.94,12.84-19.48,22.89-28.59,30.15c-9.12,7.25-18.24,12.22-27.35,14.92
		c-9.12,2.69-18.65,4.04-28.59,4.04c-17.4,0-31.5-5.19-42.27-15.54c-10.78-10.36-17.2-23.83-19.27-40.4
		c13.26-10.36,26.51-21.86,39.78-34.5c13.26-12.65,25.27-25.58,36.05-38.85c-7.05-2.07-14.61-6.93-22.69-14.61
		C63.54-232.24,54.73-246.64,45.2-267.77z"/>
	<path class="st0" d="M649.98-341.74c0,25.7-3.94,48.59-11.81,68.68c-7.88,20.1-18.96,36.98-33.25,50.66s-31.39,24.04-51.28,31.08
		s-42.06,10.57-66.51,10.57c-24.45,0-46.62-3.73-66.51-11.19c-19.89-7.46-36.98-18.12-51.28-32.01
		c-14.3-13.88-25.39-30.77-33.25-50.66c-7.88-19.89-11.81-42.27-11.81-67.13c0-24.44,3.93-46.62,11.81-66.51
		c7.87-19.89,18.96-36.77,33.25-50.66c14.3-13.88,31.39-24.55,51.28-32.01c19.89-7.46,42.05-11.19,66.51-11.19
		c24.45,0,46.62,3.84,66.51,11.5c19.89,7.67,36.98,18.44,51.28,32.32c14.3,13.89,25.38,30.77,33.25,50.66
		C646.04-387.74,649.98-365.77,649.98-341.74z M432.44-341.74c0,25.28,4.87,44.66,14.61,58.12c9.73,13.47,23.31,20.2,40.71,20.2
		s30.77-6.84,40.09-20.51c9.32-13.67,13.99-32.94,13.99-57.81c0-24.86-4.77-44.02-14.3-57.49c-9.54-13.46-23-20.2-40.4-20.2
		s-30.87,6.74-40.4,20.2C437.2-385.76,432.44-366.6,432.44-341.74z"/>
	<path class="st0" d="M809.1-191.32c-4.56,0.83-11.29,1.96-20.2,3.42c-8.92,1.45-17.93,2.18-27.04,2.18
		c-9.12,0-17.31-0.62-24.55-1.86c-7.25-1.24-13.36-3.73-18.34-7.46c-4.97-3.73-8.81-8.8-11.5-15.23c-2.7-6.42-4.04-14.81-4.04-25.17
		v-360.51c4.56-0.83,11.29-1.96,20.2-3.42c8.91-1.45,17.92-2.18,27.04-2.18c9.11,0,17.3,0.62,24.55,1.86
		c7.25,1.24,13.36,3.73,18.34,7.46c4.97,3.73,8.8,8.81,11.5,15.23c2.69,6.43,4.04,14.82,4.04,25.17V-191.32z"/>
	<path class="st0" d="M983.14-191.32c-4.56,0.83-11.29,1.96-20.2,3.42c-8.92,1.45-17.93,2.18-27.04,2.18
		c-9.12,0-17.31-0.62-24.55-1.86c-7.25-1.24-13.36-3.73-18.34-7.46c-4.97-3.73-8.81-8.8-11.5-15.23c-2.7-6.42-4.04-14.81-4.04-25.17
		v-360.51c4.56-0.83,11.29-1.96,20.2-3.42c8.91-1.45,17.92-2.18,27.04-2.18c9.11,0,17.3,0.62,24.55,1.86
		c7.25,1.24,13.36,3.73,18.34,7.46c4.97,3.73,8.8,8.81,11.5,15.23c2.69,6.43,4.04,14.82,4.04,25.17V-191.32z"/>
	<path class="st0" d="M1344.89-245.4c-2.08,19.48-7.77,34.4-17.09,44.75c-9.32,10.35-22.9,15.54-40.71,15.54
		c-13.27,0-25.08-3.21-35.43-9.63c-10.36-6.42-21.55-17.3-33.56-32.63l-61.53-77.07v113.12c-4.57,0.83-11.29,1.96-20.2,3.42
		c-8.92,1.45-17.93,2.18-27.04,2.18c-9.12,0-17.31-0.62-24.55-1.86c-7.25-1.24-13.36-3.73-18.34-7.46
		c-4.97-3.73-8.81-8.8-11.5-15.23c-2.7-6.42-4.04-14.81-4.04-25.17v-359.88c4.55-1.24,11.29-2.58,20.2-4.04
		c8.91-1.45,17.92-2.18,27.04-2.18c9.11,0,17.3,0.62,24.55,1.86c7.25,1.24,13.36,3.73,18.34,7.46c4.97,3.73,8.8,8.81,11.5,15.23
		c2.69,6.43,4.04,14.82,4.04,25.17v164.09l106.91-109.4c21.54,0,38.85,4.77,51.9,14.3c13.05,9.54,19.58,21.55,19.58,36.05
		c0,6.22-1.04,11.92-3.11,17.09c-2.08,5.19-5.28,10.47-9.63,15.85c-4.35,5.39-9.95,11.09-16.78,17.09
		c-6.84,6.01-14.82,12.96-23.93,20.82l-36.05,31.08L1344.89-245.4z"/>
</g>
<g>
	<path class="st1" d="M45.2-770.77c-4.56-10.35-9.43-21.96-14.61-34.81c-5.19-12.84-10.57-27.55-16.16-44.13
		c-5.59-16.57-11.4-35.53-17.4-56.87c-6.01-21.34-12.33-45.89-18.96-73.66c5.8-5.8,13.57-10.88,23.31-15.23
		c9.73-4.35,20.4-6.53,32.01-6.53c14.5,0,26.51,3.01,36.05,9.01c9.53,6.01,16.57,17.31,21.13,33.88l49.1,170.93h2.49
		c4.97-14.08,9.84-29.42,14.61-46c4.76-16.57,9.42-33.66,13.99-51.28c4.55-17.61,8.8-35.22,12.74-52.83
		c3.93-17.61,7.35-34.9,10.26-51.9c14.92-7.87,31.28-11.81,49.1-11.81c14.5,0,26.51,3.11,36.05,9.32c9.53,6.22,14.3,17,14.3,32.32
		c0,11.19-1.46,24.14-4.35,38.85c-2.9,14.71-6.74,30.36-11.5,46.93c-4.77,16.58-10.36,33.67-16.78,51.28
		c-6.43,17.62-13.16,34.91-20.2,51.9c-7.05,17-14.3,33.05-21.75,48.17c-7.46,15.13-14.71,28.7-21.75,40.71
		c-11.61,20.3-22.38,36.88-32.32,49.73c-9.94,12.84-19.48,22.89-28.59,30.15c-9.12,7.25-18.24,12.22-27.35,14.92
		c-9.12,2.69-18.65,4.04-28.59,4.04c-17.4,0-31.5-5.19-42.27-15.54c-10.78-10.36-17.2-23.83-19.27-40.4
		c13.26-10.36,26.51-21.86,39.78-34.5c13.26-12.65,25.27-25.58,36.05-38.85c-7.05-2.07-14.61-6.93-22.69-14.61
		C63.54-735.24,54.73-749.64,45.2-770.77z"/>
	<path class="st1" d="M649.98-844.74c0,25.7-3.94,48.59-11.81,68.68c-7.88,20.1-18.96,36.98-33.25,50.66s-31.39,24.04-51.28,31.08
		s-42.06,10.57-66.51,10.57c-24.45,0-46.62-3.73-66.51-11.19c-19.89-7.46-36.98-18.12-51.28-32.01
		c-14.3-13.88-25.39-30.77-33.25-50.66c-7.88-19.89-11.81-42.27-11.81-67.13c0-24.44,3.93-46.62,11.81-66.51
		c7.87-19.89,18.96-36.77,33.25-50.66c14.3-13.88,31.39-24.55,51.28-32.01c19.89-7.46,42.05-11.19,66.51-11.19
		c24.45,0,46.62,3.84,66.51,11.5c19.89,7.67,36.98,18.44,51.28,32.32c14.3,13.89,25.38,30.77,33.25,50.66
		C646.04-890.74,649.98-868.77,649.98-844.74z M432.44-844.74c0,25.28,4.87,44.66,14.61,58.12c9.73,13.47,23.31,20.2,40.71,20.2
		s30.77-6.84,40.09-20.51c9.32-13.67,13.99-32.94,13.99-57.81c0-24.86-4.77-44.02-14.3-57.49c-9.54-13.46-23-20.2-40.4-20.2
		s-30.87,6.74-40.4,20.2C437.2-888.76,432.44-869.6,432.44-844.74z"/>
	<path class="st1" d="M809.1-694.32c-4.56,0.83-11.29,1.96-20.2,3.42c-8.92,1.45-17.93,2.18-27.04,2.18
		c-9.12,0-17.31-0.62-24.55-1.86c-7.25-1.24-13.36-3.73-18.34-7.46c-4.97-3.73-8.81-8.8-11.5-15.23c-2.7-6.42-4.04-14.81-4.04-25.17
		v-360.51c4.56-0.83,11.29-1.96,20.2-3.42c8.91-1.45,17.92-2.18,27.04-2.18c9.11,0,17.3,0.62,24.55,1.86
		c7.25,1.24,13.36,3.73,18.34,7.46c4.97,3.73,8.8,8.81,11.5,15.23c2.69,6.43,4.04,14.82,4.04,25.17V-694.32z"/>
	<path class="st1" d="M983.14-694.32c-4.56,0.83-11.29,1.96-20.2,3.42c-8.92,1.45-17.93,2.18-27.04,2.18
		c-9.12,0-17.31-0.62-24.55-1.86c-7.25-1.24-13.36-3.73-18.34-7.46c-4.97-3.73-8.81-8.8-11.5-15.23c-2.7-6.42-4.04-14.81-4.04-25.17
		v-360.51c4.56-0.83,11.29-1.96,20.2-3.42c8.91-1.45,17.92-2.18,27.04-2.18c9.11,0,17.3,0.62,24.55,1.86
		c7.25,1.24,13.36,3.73,18.34,7.46c4.97,3.73,8.8,8.81,11.5,15.23c2.69,6.43,4.04,14.82,4.04,25.17V-694.32z"/>
	<path class="st1" d="M1344.89-748.4c-2.08,19.48-7.77,34.4-17.09,44.75c-9.32,10.35-22.9,15.54-40.71,15.54
		c-13.27,0-25.08-3.21-35.43-9.63c-10.36-6.42-21.55-17.3-33.56-32.63l-61.53-77.07v113.12c-4.57,0.83-11.29,1.96-20.2,3.42
		c-8.92,1.45-17.93,2.18-27.04,2.18c-9.12,0-17.31-0.62-24.55-1.86c-7.25-1.24-13.36-3.73-18.34-7.46
		c-4.97-3.73-8.81-8.8-11.5-15.23c-2.7-6.42-4.04-14.81-4.04-25.17v-359.88c4.55-1.24,11.29-2.58,20.2-4.04
		c8.91-1.45,17.92-2.18,27.04-2.18c9.11,0,17.3,0.62,24.55,1.86c7.25,1.24,13.36,3.73,18.34,7.46c4.97,3.73,8.8,8.81,11.5,15.23
		c2.69,6.43,4.04,14.82,4.04,25.17v164.09l106.91-109.4c21.54,0,38.85,4.77,51.9,14.3c13.05,9.54,19.58,21.55,19.58,36.05
		c0,6.22-1.04,11.92-3.11,17.09c-2.08,5.19-5.28,10.47-9.63,15.85c-4.35,5.39-9.95,11.09-16.78,17.09
		c-6.84,6.01-14.82,12.96-23.93,20.82l-36.05,31.08L1344.89-748.4z"/>
</g>
</svg>
