<svg xmlns="http://www.w3.org/2000/svg" viewBox="0 0 1315.64 509.43"><defs><style>.cls-1{fill:#fff;}</style></defs><g id="Layer_2" data-name="Layer 2"><g id="Layer_1-2" data-name="Layer 1"><path class="cls-1" d="M730.83,401.22q-6.69,1.21-19.76,3.35a165.26,165.26,0,0,1-26.44,2.13,142.34,142.34,0,0,1-24-1.83,40.94,40.94,0,0,1-17.94-7.29,35.05,35.05,0,0,1-11.24-14.9q-4-9.4-4-24.62V5.47q6.68-1.21,19.75-3.34A164.14,164.14,0,0,1,673.69,0a143.63,143.63,0,0,1,24,1.82,41,41,0,0,1,17.94,7.3A35.16,35.16,0,0,1,726.88,24q3.95,9.43,4,24.62Z"/><path class="cls-1" d="M931.44,401.22q-6.69,1.21-19.75,3.35a165.47,165.47,0,0,1-26.45,2.13,142.42,142.42,0,0,1-24-1.83,40.85,40.85,0,0,1-17.93-7.29,35,35,0,0,1-11.25-14.9q-4-9.4-3.95-24.62V5.47q6.67-1.21,19.76-3.34A164,164,0,0,1,874.3,0a143.63,143.63,0,0,1,24,1.82,41,41,0,0,1,17.94,7.3A35.16,35.16,0,0,1,927.49,24q3.94,9.43,4,24.62Z"/><path class="cls-1" d="M1315.64,348.34q-3,28.57-16.71,43.77t-39.82,15.19q-19.47,0-34.65-9.42T1191.63,366l-60.18-75.39V401.22q-6.71,1.21-19.76,3.35a165.47,165.47,0,0,1-26.45,2.13,142.51,142.51,0,0,1-24-1.83,40.9,40.9,0,0,1-17.93-7.29,35,35,0,0,1-11.25-14.9q-4-9.4-4-24.62V6.08q6.69-1.83,19.76-3.95A164,164,0,0,1,1074.3,0a143.63,143.63,0,0,1,24,1.82,41,41,0,0,1,17.94,7.3A35.16,35.16,0,0,1,1127.49,24q4,9.43,4,24.62V209.12l104.56-107q31.6,0,50.76,14t19.15,35.26a44.74,44.74,0,0,1-3,16.72,61.13,61.13,0,0,1-9.42,15.5A139,139,0,0,1,1277,200.31q-10,8.82-23.4,20.36l-35.26,30.4Z"/><path class="cls-1" d="M65.65,326.45q-6.69-15.18-14.28-34T35.56,249.25q-8.21-24.31-17-55.63T0,121.58q8.5-8.51,22.8-14.89a75.71,75.71,0,0,1,31.3-6.38q21.29,0,35.26,8.81T110,142.25l48,167.18h2.43q7.29-20.65,14.29-45t13.67-50.15q6.69-25.83,12.47-51.67t10-50.76a101.27,101.27,0,0,1,48-11.55q21.27,0,35.26,9.12t14,31.61q0,16.41-4.25,38t-11.25,45.9q-7,24.31-16.41,50.15t-19.76,50.76Q246.19,350.77,235.26,373T214,412.77q-17,29.79-31.62,48.64t-28,29.48Q141,501.53,127.66,505.48a98.36,98.36,0,0,1-28,3.95q-25.53,0-41.34-15.2T39.51,454.72Q59,439.53,78.42,421a409.33,409.33,0,0,0,35.26-38q-10.35-3-22.19-14.29T65.65,326.45Z"/><path class="cls-1" d="M453.33,100.44c-64.74,0-116.13,137.94-116.13,202.68S390.78,407.2,455.52,407.2s116.13-39.34,116.13-104.08S518.07,100.44,453.33,100.44Zm1.29,264.66c-36.37,0-66.32-16.26-66.32-48.9s29.48-59.1,65.84-59.1S520,283.56,520,316.2,491,365.1,454.62,365.1Z"/></g></g></svg>