<svg xmlns="http://www.w3.org/2000/svg" viewBox="0 0 1366.82 520.87"><defs><style>.cls-1{fill:#fff;}</style></defs><g id="Layer_2" data-name="Layer 2"><g id="Layer_1-2" data-name="Layer 1"><path class="cls-1" d="M67.13,333.78Q60.28,318.26,52.52,299T36.36,254.84Q28,230,19,198T0,124.31q8.7-8.7,23.31-15.23a77.53,77.53,0,0,1,32-6.52q21.75,0,36.05,9t21.13,33.88l49.11,170.93h2.48q7.46-21.13,14.61-46t14-51.28q6.84-26.41,12.75-52.83t10.25-51.9a103.6,103.6,0,0,1,49.11-11.81q21.75,0,36,9.32t14.29,32.32q0,16.78-4.35,38.85T299.28,230q-7.15,24.87-16.78,51.28t-20.2,51.9q-10.58,25.48-21.76,48.17T218.79,422q-17.41,30.45-32.32,49.73t-28.59,30.14q-13.68,10.88-27.35,14.92a100.54,100.54,0,0,1-28.59,4q-26.11,0-42.27-15.54T40.4,464.93q19.89-15.54,39.78-34.5a417.09,417.09,0,0,0,36.05-38.85q-10.58-3.09-22.68-14.6T67.13,333.78Z"/><path class="cls-1" d="M671.91,259.81q0,38.55-11.81,68.69t-33.25,50.65a141.33,141.33,0,0,1-51.28,31.08q-29.84,10.56-66.51,10.57t-66.5-11.19a146.21,146.21,0,0,1-51.28-32Q369.83,356.78,358,326.94t-11.81-67.13q0-36.66,11.81-66.5t33.26-50.66a146.35,146.35,0,0,1,51.28-32q29.83-11.19,66.5-11.19T575.57,111a150.24,150.24,0,0,1,51.28,32.32q21.45,20.83,33.25,50.66T671.91,259.81Zm-217.54,0q0,37.92,14.6,58.12t40.71,20.2q26.12,0,40.1-20.51t14-57.81q0-37.29-14.3-57.49t-40.4-20.2q-26.1,0-40.4,20.2T454.37,259.81Z"/><path class="cls-1" d="M831,410.23q-6.84,1.25-20.2,3.42a168.13,168.13,0,0,1-27,2.18A146.42,146.42,0,0,1,759.24,414a41.84,41.84,0,0,1-18.34-7.46,35.82,35.82,0,0,1-11.49-15.23q-4-9.63-4-25.17V5.59q6.82-1.23,20.2-3.41A167.92,167.92,0,0,1,772.6,0a146.78,146.78,0,0,1,24.56,1.86,41.92,41.92,0,0,1,18.33,7.46A35.9,35.9,0,0,1,827,24.55q4,9.65,4,25.18Z"/><path class="cls-1" d="M1005.07,410.23q-6.86,1.25-20.2,3.42a168.22,168.22,0,0,1-27,2.18A146.34,146.34,0,0,1,933.28,414a41.74,41.74,0,0,1-18.34-7.46,35.84,35.84,0,0,1-11.5-15.23q-4.05-9.63-4-25.17V5.59q6.84-1.23,20.2-3.41a168,168,0,0,1,27-2.18,146.58,146.58,0,0,1,24.55,1.86,41.91,41.91,0,0,1,18.34,7.46A36,36,0,0,1,1001,24.55q4,9.65,4,25.18Z"/><path class="cls-1" d="M1366.82,356.16q-3.12,29.22-17.1,44.75T1309,416.45q-19.89,0-35.43-9.64T1240,374.18l-61.54-77.07V410.23q-6.84,1.25-20.2,3.42a168.13,168.13,0,0,1-27,2.18,146.51,146.51,0,0,1-24.55-1.87,41.75,41.75,0,0,1-18.33-7.46,35.76,35.76,0,0,1-11.5-15.23q-4-9.63-4-25.17V6.22q6.83-1.87,20.2-4a168,168,0,0,1,27-2.18,146.66,146.66,0,0,1,24.55,1.86,41.92,41.92,0,0,1,18.33,7.46,35.9,35.9,0,0,1,11.5,15.23q4,9.65,4,25.18V213.82l106.91-109.4q32.31,0,51.9,14.3t19.58,36.05a45.63,45.63,0,0,1-3.11,17.09,62.14,62.14,0,0,1-9.63,15.85,142,142,0,0,1-16.78,17.1q-10.26,9-23.93,20.82l-36.05,31.08Z"/></g></g></svg>